Coordinates
version=1
nRows=17
nColumns=24
inDegrees=yes

Units are S.I. units (second, meters, Newtons, ...)
Angles are in degrees.

endheader
time	pelvis_tilt	pelvis_list	pelvis_rotation	pelvis_tx	pelvis_ty	pelvis_tz	hip_flexion_r	hip_adduction_r	hip_rotation_r	knee_angle_r	ankle_angle_r	subtalar_angle_r	mtp_angle_r	hip_flexion_l	hip_adduction_l	hip_rotation_l	knee_angle_l	ankle_angle_l	subtalar_angle_l	mtp_angle_l	lumbar_extension	lumbar_bending	lumbar_rotation
      4.41500000	     -2.50829367	      6.84510740	     -4.34391108	     -0.39448838	      0.92734718	      0.25614578	     23.37655401	     -6.32594461	      2.22863664	    -71.93626891	      9.21623261	    -11.22843862	      0.00000000	     17.93860102	     13.98212580	      0.75229548	    -26.11044894	     17.70989629	    -17.50420335	      0.00000000	     -8.42905240	     -9.98145509	     -5.69848104
      4.42000000	     -2.41476228	      6.49041956	     -4.10535739	     -0.38752993	      0.92925085	      0.25570862	     23.87447436	     -5.96503653	      2.16242804	    -71.17205604	      9.70886342	    -11.09783808	      0.00000000	     16.92590494	     13.80623500	      1.44884864	    -25.47024591	     17.62841712	    -17.83036785	      0.00000000	     -8.64012976	     -9.49494987	     -5.89247142
      4.42500000	     -2.32769161	      6.12923850	     -3.85500338	     -0.38061170	      0.93109741	      0.25526838	     24.34416858	     -5.60337394	      2.07846244	    -70.30616390	     10.13628378	    -11.00850244	      0.00000000	     15.92747569	     13.61285448	      2.16331104	    -24.83414699	     17.51663999	    -18.17282157	      0.00000000	     -8.84570144	     -9.00044817	     -6.07937150
      4.43000000	     -2.25259897	      5.76304901	     -3.59946983	     -0.37372451	      0.93285003	      0.25481696	     24.79548386	     -5.24522233	      1.97451923	    -69.34597457	     10.50335484	    -10.97342153	      0.00000000	     14.95230983	     13.40034198	      2.86667808	    -24.20325832	     17.40322523	    -18.53294325	      0.00000000	     -9.03708293	     -8.49760157	     -6.27055673
      4.43500000	     -2.18681277	      5.39853193	     -3.33714853	     -0.36686080	      0.93450964	      0.25436972	     25.22324540	     -4.89408357	      1.85673987	    -68.29134789	     10.81244193	    -11.00237773	      0.00000000	     13.99867660	     13.17476203	      3.56050607	    -23.58066076	     17.28328479	    -18.89659563	      0.00000000	     -9.21583928	     -7.99652624	     -6.46345428
      4.44000000	     -2.13067736	      5.04022687	     -3.06762384	     -0.36003342	      0.93606777	      0.25391809	     25.62935352	     -4.55249164	      1.73115772	    -67.14483572	     11.06642265	    -11.10105655	      0.00000000	     13.06900611	     12.94133806	      4.23775902	    -22.96729387	     17.16598988	    -19.25587512	      0.00000000	     -9.38333096	     -7.50154981	     -6.65993337
      4.44500000	     -2.08006731	      4.69378217	     -2.79201879	     -0.35321654	      0.93752364	      0.25347315	     26.00731770	     -4.22670037	      1.60064954	    -65.90867312	     11.27034218	    -11.26554321	      0.00000000	     12.15692024	     12.70525096	      4.89776545	    -22.36103213	     17.04998308	    -19.60692425	      0.00000000	     -9.53993780	     -7.02085945	     -6.85919401
      4.45000000	     -2.03508856	      4.36087480	     -2.51066281	     -0.34641492	      0.93887144	      0.25303349	     26.35769806	     -3.91698436	      1.46909366	    -64.58416295	     11.42755483	    -11.49593726	      0.00000000	     11.26330674	     12.46859991	      5.53611155	    -21.76301714	     16.94018813	    -19.94716597	      0.00000000	     -9.68589458	     -6.55675964	     -7.06323150
      4.45500000	     -1.99228770	      4.04489217	     -2.22314072	     -0.33961893	      0.94011097	      0.25259990	     26.67573801	     -3.62745666	      1.33904183	    -63.17318396	     11.54386950	    -11.78243953	      0.00000000	     10.38258412	     12.23589521	      6.15411726	    -21.17072963	     16.83737248	    -20.27783923	      0.00000000	     -9.82518548	     -6.11371517	     -7.27328050
      4.46000000	     -1.95446571	      3.74709836	     -1.93414764	     -0.33282600	      0.94123111	      0.25216971	     26.96607935	     -3.35690799	      1.21849717	    -61.67947913	     11.62254214	    -12.12065671	      0.00000000	      9.51911287	     12.00887473	      6.74832826	    -20.58723643	     16.74351779	    -20.59329797	      0.00000000	     -9.95056807	     -5.68660407	     -7.48807824
      4.46500000	     -1.92674991	      3.46650748	     -1.63811146	     -0.32604593	      0.94222173	      0.25177476	     27.23563028	     -3.10612588	      1.09696176	    -60.10656152	     11.65925284	    -12.50470483	      0.00000000	      8.67803999	     11.78383446	      7.30903516	    -20.01022379	     16.66928038	    -20.89710480	      0.00000000	    -10.06428128	     -5.29455567	     -7.70365060
      4.47000000	     -1.88853661	      3.20774991	     -1.33851811	     -0.31924935	      0.94311365	      0.25135160	     27.45730727	     -2.88139009	      0.99174962	    -58.45270492	     11.66802302	    -12.90923228	      0.00000000	      7.83280747	     11.57527929	      7.86935162	    -19.44070701	     16.59577009	    -21.20005951	      0.00000000	    -10.17912494	     -4.91524551	     -7.93791250
      4.47500000	     -1.85732541	      2.96723544	     -1.03956490	     -0.31244574	      0.94387765	      0.25094023	     27.65347304	     -2.67779884	      0.89547750	    -56.72293201	     11.65261717	    -13.32698845	      0.00000000	      7.00225267	     11.37359080	      8.40580734	    -18.87509690	     16.53340571	    -21.49652949	      0.00000000	    -10.28004211	     -4.55690526	     -8.16996095
      4.48000000	     -1.80963571	      2.74445977	     -0.73665794	     -0.30564689	      0.94453665	      0.25054241	     27.79777710	     -2.49797136	      0.80687546	    -54.92041163	     11.64865920	    -13.71073402	      0.00000000	      6.16335993	     11.18231565	      8.93445556	    -18.31844467	     16.47121196	    -21.82259786	      0.00000000	    -10.39864236	     -4.22565996	     -8.40765217
      4.48500000	     -1.81417051	      2.54615654	     -0.43995684	     -0.29884297	      0.94502390	      0.25018287	     27.97757887	     -2.33888356	      0.73479269	    -53.05911732	     11.53760258	    -14.13866632	      0.00000000	      5.38641922	     10.99858269	      9.42269140	    -17.76511727	     16.44130088	    -22.07190200	      0.00000000	    -10.44645501	     -3.92446594	     -8.64278017
      4.49000000	     -1.84252932	      2.34414042	     -0.15402858	     -0.29201590	      0.94534636	      0.24982351	     28.14624770	     -2.18688744	      0.64811734	    -51.12194521	     11.45932877	    -14.50253087	      0.00000000	      4.65271232	     10.80406989	      9.85849917	    -17.23864879	     16.44893970	    -22.32496709	      0.00000000	    -10.45507154	     -3.61914517	     -8.81507030
      4.49500000	     -1.73387677	      2.18930312	      0.15541555	     -0.28519695	      0.94576801	      0.24943743	     28.12908731	     -2.09447306	      0.59325322	    -49.12774678	     11.42150354	    -14.73190609	      0.00000000	      3.74118719	     10.65851516	     10.42278157	    -16.65724143	     16.33838608	    -22.71030260	      0.00000000	    -10.64119198	     -3.36582517	     -9.12518269
